<?xml version="1.0" encoding="utf-8"?>
<!-- Generator: Adobe Illustrator 26.0.3, SVG Export Plug-In . SVG Version: 6.00 Build 0)  -->
<svg version="1.1" id="Layer_1" xmlns="http://www.w3.org/2000/svg" xmlns:xlink="http://www.w3.org/1999/xlink" x="0px" y="0px"
	 viewBox="0 0 269 56" style="enable-background:new 0 0 269 56;" xml:space="preserve">
<style type="text/css">
	.st0{fill:#FFFFFF;}
	.st1{fill:#91A23A;}
	.st2{fill:#92A23A;}
</style>
<g>
	<g>
		<path class="st0" d="M102.4,8.4v29.9c0,0.5-0.3,0.8-0.8,0.8c-0.5,0-0.8-0.3-0.8-0.8v-7.8c-2.4,5.2-7.5,8.7-13.3,8.7
			c-8.3,0-14.9-7.2-14.9-15.8S79.3,7.6,87.5,7.6c5.8,0,10.8,3.6,13.3,8.7V8.5c0-0.4,0.3-0.8,0.8-0.8C102,7.6,102.4,8.1,102.4,8.4z
			 M100.8,23.4c0-7.8-6-14.1-13.3-14.1s-13.3,6.3-13.3,14.1c0,7.8,6,14.2,13.3,14.2S100.8,31.3,100.8,23.4z"/>
		<path class="st0" d="M87.5,39.4c-8.3,0-15.1-7.2-15.1-16c0-8.8,6.8-16,15.1-16c5.4,0,10.4,3.2,13.1,8.2V8.5c0-0.5,0.4-1,1-1
			c0.2,0,0.4,0.1,0.6,0.2c0.2,0.2,0.3,0.5,0.3,0.7v29.9c0,0.6-0.4,1-0.9,1c-0.6,0-1-0.4-1-1v-7.1C98,36.3,93,39.4,87.5,39.4z
			 M87.5,7.8c-8.1,0-14.7,7-14.7,15.6C72.8,32,79.4,39,87.5,39c5.6,0,10.6-3.3,13.1-8.6l0.3-0.7v8.6c0,0.4,0.2,0.7,0.7,0.7
			c0.4,0,0.6-0.2,0.6-0.7V8.4c0-0.2-0.1-0.4-0.2-0.5c-0.1-0.1-0.2-0.1-0.3-0.1c-0.4,0-0.7,0.4-0.7,0.7v8.6l-0.3-0.7
			C98.1,11.2,93,7.8,87.5,7.8z M87.5,37.8c-7.4,0-13.5-6.4-13.5-14.3c0-7.9,6-14.3,13.5-14.3s13.5,6.4,13.5,14.3
			C100.9,31.3,94.9,37.8,87.5,37.8z M87.5,9.5c-7.2,0-13.1,6.3-13.1,13.9c0,7.7,5.9,14,13.1,14s13.1-6.3,13.1-14
			C100.6,15.7,94.7,9.5,87.5,9.5z"/>
	</g>
	<g>
		<path class="st0" d="M101.6,7.3c-0.7,0-1.2,0.6-1.2,1.2v6.4c-1.2-2-2.9-3.8-4.8-5.1c-2.4-1.7-5.2-2.5-8.1-2.5
			c-2.1,0-4.1,0.4-6,1.3c-1.8,0.8-3.4,2-4.9,3.5c-1.4,1.5-2.5,3.2-3.3,5.1c-0.8,2-1.2,4.1-1.2,6.3s0.4,4.3,1.2,6.3
			c0.8,1.9,1.9,3.6,3.3,5.1s3,2.6,4.9,3.5c1.9,0.8,3.9,1.3,6,1.3c2.9,0,5.7-0.9,8.1-2.5c2-1.3,3.6-3.1,4.8-5.1v6.4
			c0,0.7,0.5,1.2,1.2,1.2c0.7,0,1.1-0.5,1.1-1.2V8.5C102.7,7.9,102.3,7.3,101.6,7.3z M87.5,9.6c7.1,0,12.9,6.2,12.9,13.7
			c0,7.6-5.8,13.8-12.9,13.8S74.6,31,74.6,23.4C74.6,15.8,80.4,9.6,87.5,9.6z"/>
		<path class="st0" d="M101.6,39.7c-0.8,0-1.4-0.6-1.4-1.4v-5.8c-1.2,1.9-2.7,3.5-4.6,4.7c-2.4,1.6-5.3,2.5-8.2,2.5
			c-2,0-4.1-0.4-6-1.3c-1.8-0.8-3.5-2-4.9-3.5c-1.4-1.4-2.5-3.2-3.3-5.2c-0.8-2-1.2-4.2-1.2-6.3c0-2.2,0.4-4.3,1.2-6.3
			c0.8-1.9,1.9-3.7,3.3-5.2c1.4-1.5,3.1-2.7,4.9-3.5c1.9-0.9,3.9-1.3,6-1.3c2.9,0,5.8,0.9,8.2,2.5c1.8,1.2,3.3,2.7,4.5,4.6V8.5
			c0-0.7,0.6-1.4,1.4-1.4c0.8,0,1.3,0.7,1.3,1.4v29.9C102.9,39.2,102.4,39.7,101.6,39.7z M100.6,31.3v7c0,0.6,0.4,1,1,1
			c0.6,0,1-0.4,1-1V8.5c0-0.5-0.4-1-1-1c-0.6,0-1,0.5-1,1v7l-0.3-0.5c-1.3-2.1-2.9-3.8-4.8-5c-2.4-1.6-5.1-2.5-8-2.5
			c-2.1,0-4,0.4-5.9,1.3c-1.8,0.8-3.4,2-4.8,3.4c-1.4,1.5-2.5,3.2-3.2,5.1c-0.8,2-1.2,4.1-1.2,6.2c0,2.1,0.4,4.2,1.2,6.2
			c0.8,2,1.9,3.6,3.2,5.1c1.4,1.5,3,2.6,4.8,3.4c1.9,0.8,3.9,1.3,5.9,1.3c2.8,0,5.6-0.8,8-2.4c1.9-1.3,3.6-3,4.8-5.1L100.6,31.3z
			 M87.5,37.3c-7.2,0-13.1-6.3-13.1-14c0-7.7,5.9-13.9,13.1-13.9s13.1,6.2,13.1,13.9C100.6,31.1,94.7,37.3,87.5,37.3z M87.5,9.8
			c-7,0-12.7,6.1-12.7,13.6c0,7.5,5.7,13.6,12.7,13.6s12.7-6.1,12.7-13.6C100.2,15.9,94.5,9.8,87.5,9.8z"/>
	</g>
	<g>
		<g>
			<path class="st0" d="M136.7,7.3c-0.7,0-1.2,0.6-1.2,1.2v6.4c-1.2-2-2.9-3.8-4.8-5.1c-2.4-1.7-5.2-2.5-8.1-2.5
				c-2.1,0-4.1,0.4-6,1.3c-1.8,0.8-3.4,2-4.9,3.5c-1.4,1.5-2.5,3.2-3.3,5.1c-0.8,2-1.2,4.1-1.2,6.3s0.4,4.3,1.2,6.3
				c0.8,1.9,1.9,3.6,3.3,5.1c1.4,1.5,3,2.6,4.9,3.5c1.9,0.8,3.9,1.3,6,1.3c2.9,0,5.7-0.9,8.1-2.5c2-1.3,3.6-3.1,4.8-5.1v6.4
				c0,0.7,0.5,1.2,1.2,1.2c0.7,0,1.1-0.5,1.1-1.2V8.5C137.8,7.9,137.3,7.3,136.7,7.3z M122.5,37.2c-7.1,0-12.9-6.2-12.9-13.8
				c0-7.6,5.8-13.7,12.9-13.7c7.1,0,12.9,6.2,12.9,13.7C135.4,31,129.7,37.2,122.5,37.2z"/>
			<path class="st0" d="M136.7,39.7c-0.8,0-1.4-0.6-1.4-1.4v-5.8c-1.2,1.9-2.7,3.5-4.5,4.7c-2.4,1.6-5.3,2.5-8.2,2.5
				c-2,0-4.1-0.4-6-1.3c-1.8-0.8-3.5-2-4.9-3.5c-1.4-1.4-2.5-3.2-3.3-5.2c-0.8-2-1.2-4.2-1.2-6.3c0-2.2,0.4-4.3,1.2-6.3
				c0.8-1.9,1.9-3.7,3.3-5.2c1.4-1.5,3.1-2.7,4.9-3.5c1.9-0.9,3.9-1.3,6-1.3c2.9,0,5.8,0.9,8.2,2.5c1.8,1.2,3.3,2.7,4.5,4.6V8.5
				c0-0.7,0.6-1.4,1.4-1.4c0.8,0,1.3,0.7,1.3,1.4v29.9C138,39.2,137.4,39.7,136.7,39.7z M135.6,31.3v7c0,0.6,0.4,1,1,1
				c0.6,0,1-0.4,1-1V8.5c0-0.5-0.4-1-1-1c-0.6,0-1,0.5-1,1v7l-0.3-0.5c-1.3-2.1-2.9-3.8-4.8-5c-2.4-1.6-5.1-2.5-8-2.5
				c-2.1,0-4,0.4-5.9,1.3c-1.8,0.8-3.4,2-4.8,3.4c-1.4,1.5-2.5,3.2-3.2,5.1c-0.8,2-1.2,4.1-1.2,6.2s0.4,4.2,1.2,6.2
				c0.8,2,1.9,3.6,3.2,5.1c1.4,1.5,3,2.6,4.8,3.4c1.9,0.8,3.9,1.3,5.9,1.3c2.8,0,5.6-0.8,8-2.4c1.9-1.3,3.6-3,4.8-5.1L135.6,31.3z
				 M122.5,37.3c-7.2,0-13.1-6.3-13.1-14c0-7.7,5.9-13.9,13.1-13.9s13.1,6.2,13.1,13.9C135.6,31.1,129.8,37.3,122.5,37.3z
				 M122.5,9.8c-7,0-12.7,6.1-12.7,13.6c0,7.5,5.7,13.6,12.7,13.6s12.7-6.1,12.7-13.6C135.3,15.9,129.6,9.8,122.5,9.8z"/>
		</g>
	</g>
	<g>
		<g>
			<path class="st0" d="M175.6,17c-0.8-1.9-1.9-3.6-3.3-5.1c-2.9-3-6.8-4.7-11-4.7c-2.9,0-5.8,0.9-8.2,2.4c-2,1.3-3.7,3-4.9,5.1V8.4
				c0-0.7-0.4-1.2-1.1-1.2c-0.7,0-1.2,0.5-1.2,1.2v43.7c0,0.7,0.5,1.2,1.2,1.2c0.7,0,1.1-0.5,1.1-1.2V31.8c1.2,2,2.9,3.7,4.9,5
				c2.5,1.6,5.3,2.4,8.2,2.4c2.1,0,4.2-0.4,6.1-1.3c1.9-0.8,3.5-2,5-3.4c1.4-1.5,2.5-3.2,3.3-5.1c0.8-2,1.2-4.1,1.2-6.2
				S176.4,18.9,175.6,17z M174.4,23.2c0,7.5-5.9,13.6-13.2,13.6c-7.2,0-13.1-6.1-13.1-13.6v-0.6c0.2-7.2,6.1-13,13.1-13
				C168.5,9.6,174.4,15.7,174.4,23.2z"/>
			<path class="st0" d="M147,53.5c-0.8,0-1.4-0.6-1.4-1.4V8.4c0-0.8,0.6-1.4,1.4-1.4c0.8,0,1.3,0.6,1.3,1.4v5.7
				c1.2-1.8,2.7-3.4,4.6-4.6c2.5-1.6,5.4-2.5,8.3-2.5c4.3,0,8.2,1.7,11.2,4.7c1.4,1.5,2.6,3.2,3.3,5.1l0,0c0.8,2,1.2,4.1,1.2,6.3
				c0,2.2-0.4,4.3-1.2,6.3c-0.8,1.9-1.9,3.7-3.3,5.1c-1.4,1.5-3.1,2.7-5,3.5c-2,0.9-4.1,1.3-6.2,1.3c-2.9,0-5.8-0.9-8.3-2.5
				c-1.8-1.2-3.4-2.7-4.6-4.6v19.8c0,0.4-0.1,0.7-0.3,1C147.7,53.4,147.3,53.5,147,53.5z M147,7.4c-0.6,0-1,0.4-1,1v43.7
				c0,0.6,0.4,1,1,1c0.3,0,0.5-0.1,0.7-0.3c0.2-0.2,0.3-0.4,0.2-0.7v-21l0.3,0.5c1.3,2,2.9,3.7,4.8,5c2.5,1.6,5.3,2.4,8.1,2.4
				c2.1,0,4.1-0.4,6.1-1.3c1.8-0.8,3.5-1.9,4.9-3.4c1.4-1.5,2.5-3.1,3.3-5c0.8-2,1.2-4,1.2-6.2c0-2.1-0.4-4.2-1.2-6.2l0,0
				c-0.7-1.8-1.9-3.6-3.3-5c-2.9-3-6.8-4.6-10.9-4.6c-2.9,0-5.7,0.8-8.1,2.4c-2,1.3-3.7,3-4.8,5l-0.3,0.5v-7
				C147.9,7.8,147.6,7.4,147,7.4z M161.2,37c-7.3,0-13.3-6.2-13.3-13.8v-0.6c0.2-7.3,6.2-13.2,13.3-13.2c7.4,0,13.4,6.2,13.4,13.8
				S168.6,37,161.2,37z M161.2,9.7c-6.9,0-12.7,5.8-12.9,12.9v0.6c0,7.4,5.8,13.5,12.9,13.5c7.2,0,13-6,13-13.5
				C174.2,15.8,168.4,9.7,161.2,9.7z"/>
		</g>
	</g>
	<g>
		<g>
			<path class="st0" d="M209.7,20.3v18c-0.1,0.7-0.6,1.3-1.3,1.3c-0.7,0-1.1-0.5-1.1-1.2v-18c0-6-4.8-10.8-10.7-10.8
				c-6,0-10.8,4.9-10.8,10.8v18c0,0.3-0.1,0.6-0.3,0.8c-0.2,0.3-0.5,0.4-0.9,0.4h-0.4l-0.1-0.1c0,0-0.1,0-0.1-0.1
				c-0.1,0-0.2-0.1-0.3-0.2c-0.1-0.1-0.1-0.1-0.2-0.2c-0.1-0.1-0.1-0.3-0.1-0.5V8.3c0-0.7,0.5-1.1,1.2-1.1c0.7,0,1.1,0.4,1.1,1.1
				v4.5c1.1-1.5,2.4-2.8,4.1-3.8c2-1.2,4.4-1.9,6.7-1.9c1.8,0,3.4,0.3,5.1,1c1.5,0.7,3,1.6,4.2,2.8c1.2,1.2,2.1,2.6,2.8,4.2
				C209.4,16.8,209.7,18.5,209.7,20.3z"/>
			<path class="st0" d="M208.4,39.7c-0.8,0-1.3-0.6-1.3-1.4v-18c0-5.8-4.7-10.6-10.5-10.6c-5.8,0-10.6,4.8-10.6,10.6v18
				c0,0.3-0.1,0.6-0.3,0.9c-0.2,0.3-0.6,0.5-1,0.5h-0.5l-0.1-0.1c0,0-0.1,0-0.1-0.1c-0.1,0-0.2-0.1-0.3-0.2l0,0
				c-0.1-0.1-0.2-0.2-0.2-0.3c-0.1-0.1-0.2-0.3-0.2-0.6V8.3c0-0.8,0.6-1.3,1.4-1.3c0.8,0,1.3,0.5,1.3,1.3v4c1.1-1.4,2.4-2.5,3.8-3.4
				c2.1-1.2,4.4-1.9,6.8-1.9c1.8,0,3.5,0.4,5.1,1c1.5,0.6,3,1.6,4.2,2.8c1.2,1.2,2.1,2.6,2.9,4.2c0.7,1.6,1,3.4,1,5.2v18
				C209.8,39.1,209.2,39.7,208.4,39.7z M196.6,9.4c6,0,10.9,4.9,10.9,10.9v18c0,0.6,0.4,1,1,1c0.6,0,1-0.5,1.1-1.1l0-17.9
				c0-1.8-0.3-3.5-1-5.1c-0.7-1.6-1.6-3-2.8-4.1c-1.2-1.2-2.6-2.1-4.1-2.8c-1.6-0.7-3.3-1-5-1c-2.3,0-4.6,0.6-6.7,1.8
				c-1.5,0.9-2.9,2.2-4,3.7l-0.3,0.4V8.3c0-0.6-0.4-1-1-1c-0.6,0-1,0.4-1,1v30.1c0,0.2,0,0.3,0.1,0.4l0,0c0,0.1,0.1,0.1,0.1,0.2l0,0
				c0.1,0.1,0.1,0.1,0.1,0.1l0,0l0,0c0,0,0,0,0,0h0l0.1,0.1h0.3c0.2,0,0.5-0.1,0.7-0.4c0.2-0.2,0.2-0.4,0.2-0.7v-18
				C185.7,14.3,190.6,9.4,196.6,9.4z M184.2,39.3L184.2,39.3L184.2,39.3z"/>
		</g>
	</g>
	<g>
		<g>
			<path class="st0" d="M244.1,7.3c-0.7,0-1.2,0.6-1.2,1.2v6.4c-1.2-2-2.9-3.8-4.8-5.1c-2.4-1.7-5.2-2.5-8.1-2.5
				c-2.1,0-4.1,0.4-6,1.3c-1.8,0.8-3.4,2-4.9,3.5s-2.5,3.2-3.3,5.1c-0.8,2-1.2,4.1-1.2,6.3s0.4,4.3,1.2,6.3c0.8,1.9,1.9,3.6,3.3,5.1
				s3,2.6,4.9,3.5c1.9,0.8,3.9,1.3,6,1.3c2.9,0,5.7-0.9,8.1-2.5c2-1.3,3.6-3.1,4.8-5.1v6.4c0,0.7,0.5,1.2,1.2,1.2
				c0.7,0,1.1-0.5,1.1-1.2V8.5C245.2,7.9,244.8,7.3,244.1,7.3z M242.9,23.4c0,7.6-5.8,13.8-12.9,13.8s-12.9-6.2-12.9-13.8
				c0-7.6,5.8-13.7,12.9-13.7C237.1,9.6,242.9,15.8,242.9,23.4z"/>
			<path class="st0" d="M244.1,39.7c-0.8,0-1.4-0.6-1.4-1.4v-5.8c-1.2,1.8-2.7,3.5-4.5,4.7c-2.4,1.6-5.3,2.5-8.2,2.5
				c-2,0-4.1-0.4-6-1.3c-1.8-0.8-3.5-2-4.9-3.5c-1.4-1.4-2.5-3.2-3.3-5.2c-0.8-2-1.2-4.2-1.2-6.3s0.4-4.3,1.2-6.3
				c0.8-1.9,1.9-3.7,3.3-5.2c1.4-1.5,3.1-2.7,4.9-3.5c1.9-0.9,3.9-1.3,6-1.3c2.9,0,5.8,0.9,8.2,2.5c1.8,1.2,3.3,2.7,4.5,4.6V8.5
				c0-0.7,0.6-1.4,1.4-1.4c0.8,0,1.3,0.7,1.3,1.4v29.9C245.4,39.2,244.8,39.7,244.1,39.7z M243,31.3v7c0,0.6,0.4,1,1,1
				c0.6,0,1-0.4,1-1V8.5c0-0.5-0.4-1-1-1c-0.6,0-1,0.5-1,1v7l-0.3-0.5c-1.3-2.1-2.9-3.8-4.8-5c-2.4-1.6-5.1-2.5-8-2.5
				c-2.1,0-4,0.4-5.9,1.3c-1.8,0.8-3.4,2-4.8,3.4c-1.4,1.5-2.5,3.2-3.2,5.1c-0.8,2-1.2,4.1-1.2,6.2c0,2.1,0.4,4.2,1.2,6.2
				c0.8,2,1.9,3.7,3.2,5.1c1.4,1.5,3,2.6,4.8,3.4c1.9,0.8,3.9,1.3,5.9,1.3c2.8,0,5.6-0.8,8-2.4c1.9-1.3,3.6-3,4.8-5.1L243,31.3z
				 M230,37.3c-7.2,0-13.1-6.3-13.1-14c0-7.7,5.9-13.9,13.1-13.9S243,15.7,243,23.4C243,31.1,237.2,37.3,230,37.3z M230,9.8
				c-7,0-12.7,6.1-12.7,13.6c0,7.5,5.7,13.6,12.7,13.6s12.7-6.1,12.7-13.6C242.7,15.9,237,9.8,230,9.8z"/>
		</g>
	</g>
	<g>
		<g>
			<path class="st0" d="M25.5,25c0,0-0.1,0-0.1,0l-10.9-1.8c-0.2,0-0.4-0.2-0.5-0.3c-0.1-0.2-0.1-0.4-0.1-0.6
				c3.2-10.4,13-17.4,23.8-17.2c0.2,0,0.4,0.1,0.5,0.3s0.2,0.4,0.2,0.6l-1.8,10.9c-0.1,0.3-0.3,0.6-0.7,0.6
				c-4.3,0.4-8.1,3.2-9.9,7.1C26.1,24.8,25.8,25,25.5,25z M15.6,21.9l9.5,1.6c2-4,5.8-6.8,10.3-7.4l1.5-9.5
				C27.3,6.7,18.8,12.8,15.6,21.9z"/>
		</g>
		<g>
			<path class="st0" d="M30.3,52.7c-0.1,0-0.1,0-0.2,0c-10.4-3.2-17.4-13-17.2-23.8c0-0.2,0.1-0.4,0.3-0.5c0.2-0.1,0.4-0.2,0.6-0.2
				l10.9,1.8c0.3,0.1,0.6,0.3,0.6,0.7c0.4,4.3,3.2,8.1,7.1,9.9c0.3,0.1,0.5,0.5,0.4,0.8L31,52.1c0,0.2-0.2,0.4-0.3,0.5
				C30.5,52.7,30.4,52.7,30.3,52.7z M14.3,29.8c0.1,9.5,6.3,18.1,15.3,21.3l1.6-9.5c-4-2-6.8-5.8-7.4-10.3L14.3,29.8z"/>
		</g>
		<g>
			<path class="st0" d="M37.3,53.8c-0.2,0-0.4,0-0.6,0c-0.2,0-0.4-0.1-0.5-0.3C36,53.4,36,53.2,36,53l1.8-10.9
				c0.1-0.3,0.3-0.6,0.7-0.6c4.3-0.4,8.1-3.2,9.9-7.1c0.1-0.3,0.5-0.5,0.8-0.4l10.9,1.8c0.2,0,0.4,0.2,0.5,0.3
				c0.1,0.2,0.1,0.4,0.1,0.6C57.4,46.8,47.9,53.8,37.3,53.8z M39.1,42.9l-1.5,9.5C47.1,52.2,55.7,46,58.9,37l-9.5-1.6
				C47.4,39.5,43.5,42.2,39.1,42.9z"/>
		</g>
	</g>
	<g>
		<path class="st1" d="M70,6.2H43.8l0,0L41.9,18l0.3,0.1c4.1,1.8,6.8,5.7,7.3,10.1l0,0.3l11.7,1.9l0,0l0,0L70,6.2z"/>
		<path class="st2" d="M61.3,31.4c0,0-0.1,0-0.2,0l-11.7-1.9c-0.4-0.1-0.7-0.4-0.8-0.8l0-0.3c-0.4-4.1-3-7.7-6.7-9.3l-0.3-0.1
			c-0.4-0.2-0.6-0.6-0.5-1l1.9-11.7c0.1-0.5,0.5-0.8,0.9-0.8H70c0.3,0,0.6,0.2,0.8,0.4C71,5.9,71,6.3,70.9,6.6l-8.7,24.2
			C62.1,31.2,61.7,31.4,61.3,31.4z M50.4,27.7l10.2,1.7l8-22.2H44.6L43,17.4C47,19.3,49.8,23.2,50.4,27.7z"/>
	</g>
	<g>
		<g>
			<path class="st0" d="M247.8,6.5L247.8,6.5c0-2.1,1.7-3.9,3.8-3.9c2.2,0,3.8,1.8,3.8,3.8v0c0,2.1-1.7,3.9-3.8,3.9
				C249.4,10.4,247.8,8.6,247.8,6.5z M255,6.5L255,6.5c0-1.9-1.4-3.4-3.4-3.4s-3.4,1.5-3.4,3.4v0c0,1.9,1.4,3.4,3.4,3.4
				C253.5,10,255,8.4,255,6.5z M253.3,8.3c0.1,0.2,0,0.4-0.2,0.4c0,0-0.1,0-0.1,0s-0.2,0-0.3-0.1c-0.1,0-0.1-0.1-0.2-0.2
				c-0.1-0.2-0.1-0.4-0.1-0.8c0-0.1,0-0.2-0.1-0.3c0-0.1-0.1-0.1-0.2-0.2c-0.1-0.1-0.3-0.1-0.3-0.1h-0.8v1.4c0,0.2-0.2,0.3-0.4,0.3
				s-0.3-0.1-0.3-0.3V4.7c0-0.2,0.1-0.3,0.3-0.3h1.2c0.8,0,1.4,0.6,1.4,1.4c0,0.4-0.2,0.8-0.5,1.1c0.1,0.1,0.2,0.1,0.2,0.2
				c0.1,0.2,0.2,0.4,0.2,0.7c0,0.2,0,0.3,0,0.4C253.2,8.1,253.3,8.2,253.3,8.3z M252.4,5.7c0-0.4-0.3-0.7-0.7-0.7H251v1.3h0.8
				C252.1,6.4,252.4,6.1,252.4,5.7z"/>
		</g>
	</g>
</g>
</svg>
